<mxfile host="65bd71144e">
    <diagram id="NcU1F8oE8tjbiCD5Xufd" name="Page-1">
        <mxGraphModel dx="1220" dy="1470" grid="1" gridSize="10" guides="1" tooltips="1" connect="1" arrows="1" fold="1" page="1" pageScale="1" pageWidth="850" pageHeight="1100" math="0" shadow="0">
            <root>
                <mxCell id="0"/>
                <mxCell id="1" parent="0"/>
                <mxCell id="2" value="kernel" style="rounded=0;whiteSpace=wrap;html=1;fillColor=#a20025;strokeColor=#6F0000;fontColor=#ffffff;fontSize=15;" vertex="1" parent="1">
                    <mxGeometry x="22.5" y="50" width="120" height="60" as="geometry"/>
                </mxCell>
                <mxCell id="4" value="Process 0" style="rounded=0;whiteSpace=wrap;html=1;fillColor=#1ba1e2;strokeColor=#006EAF;fontColor=#ffffff;fontSize=15;" vertex="1" parent="1">
                    <mxGeometry x="22.5" y="110" width="120" height="80" as="geometry"/>
                </mxCell>
                <mxCell id="5" value="Process 1" style="rounded=0;whiteSpace=wrap;html=1;fillColor=#1ba1e2;strokeColor=#006EAF;fontColor=#ffffff;fontSize=15;" vertex="1" parent="1">
                    <mxGeometry x="22.5" y="190" width="120" height="80" as="geometry"/>
                </mxCell>
                <mxCell id="6" value="Process 2" style="rounded=0;whiteSpace=wrap;html=1;fillColor=#1ba1e2;strokeColor=#006EAF;fontColor=#ffffff;fontSize=15;" vertex="1" parent="1">
                    <mxGeometry x="22.5" y="270" width="120" height="60" as="geometry"/>
                </mxCell>
                <mxCell id="7" value="Hole" style="rounded=0;whiteSpace=wrap;html=1;fillColor=#60a917;strokeColor=#2D7600;fontColor=#ffffff;fontSize=15;" vertex="1" parent="1">
                    <mxGeometry x="22.5" y="330" width="120" height="60" as="geometry"/>
                </mxCell>
                <mxCell id="8" value="Process 4" style="rounded=0;whiteSpace=wrap;html=1;fillColor=#1ba1e2;strokeColor=#006EAF;fontColor=#ffffff;fontSize=15;" vertex="1" parent="1">
                    <mxGeometry x="22.5" y="390" width="120" height="90" as="geometry"/>
                </mxCell>
                <mxCell id="9" value="" style="shape=cylinder3;whiteSpace=wrap;html=1;boundedLbl=1;backgroundOutline=1;size=15;" vertex="1" parent="1">
                    <mxGeometry x="272.5" y="90" width="240" height="370" as="geometry"/>
                </mxCell>
                <mxCell id="17" value="Swap Space" style="rounded=1;whiteSpace=wrap;html=1;verticalAlign=top;fontSize=18;arcSize=8;" vertex="1" parent="1">
                    <mxGeometry x="292.5" y="130" width="200" height="310" as="geometry"/>
                </mxCell>
                <mxCell id="18" value="" style="rounded=0;whiteSpace=wrap;html=1;fillColor=#60a917;strokeColor=#2D7600;fontColor=#ffffff;" vertex="1" parent="1">
                    <mxGeometry x="332.5" y="190" width="120" height="80" as="geometry"/>
                </mxCell>
                <mxCell id="19" value="Process 5" style="rounded=0;whiteSpace=wrap;html=1;fillColor=#1ba1e2;strokeColor=#006EAF;fontColor=#ffffff;fontSize=15;" vertex="1" parent="1">
                    <mxGeometry x="332.5" y="270" width="120" height="60" as="geometry"/>
                </mxCell>
                <mxCell id="21" value="" style="rounded=0;whiteSpace=wrap;html=1;fillColor=#60a917;strokeColor=#2D7600;fontColor=#ffffff;" vertex="1" parent="1">
                    <mxGeometry x="332.5" y="390" width="120" height="40" as="geometry"/>
                </mxCell>
                <mxCell id="25" value="swap in" style="edgeStyle=none;html=1;exitX=0;exitY=0.5;exitDx=0;exitDy=0;entryX=1;entryY=0.5;entryDx=0;entryDy=0;fontSize=18;endArrow=open;endFill=0;endSize=17;" edge="1" parent="1" source="24" target="7">
                    <mxGeometry x="0.3684" y="-20" relative="1" as="geometry">
                        <mxPoint as="offset"/>
                    </mxGeometry>
                </mxCell>
                <mxCell id="24" value="Process 3" style="rounded=0;whiteSpace=wrap;html=1;fillColor=#1ba1e2;strokeColor=#006EAF;fontColor=#ffffff;fontSize=15;" vertex="1" parent="1">
                    <mxGeometry x="332.5" y="330" width="120" height="60" as="geometry"/>
                </mxCell>
                <mxCell id="22" value="swap out" style="edgeStyle=none;html=1;exitX=1;exitY=0.5;exitDx=0;exitDy=0;entryX=0;entryY=0.5;entryDx=0;entryDy=0;fontSize=18;endArrow=open;endFill=0;endSize=17;" edge="1" parent="1" source="5" target="18">
                    <mxGeometry x="-0.3684" y="20" relative="1" as="geometry">
                        <mxPoint as="offset"/>
                    </mxGeometry>
                </mxCell>
                <mxCell id="26" value="Main Memory" style="text;html=1;strokeColor=none;fillColor=none;align=center;verticalAlign=middle;whiteSpace=wrap;rounded=0;fontSize=18;" vertex="1" parent="1">
                    <mxGeometry x="20" y="20" width="125" height="20" as="geometry"/>
                </mxCell>
                <mxCell id="27" value="Secondary Memory" style="text;html=1;strokeColor=none;fillColor=none;align=center;verticalAlign=middle;whiteSpace=wrap;rounded=0;fontSize=18;" vertex="1" parent="1">
                    <mxGeometry x="306.25" y="60" width="172.5" height="20" as="geometry"/>
                </mxCell>
            </root>
        </mxGraphModel>
    </diagram>
</mxfile>